HIERARCHY
ROOT Hips
{
	OFFSET 0.000000 0.000000 0.000000
	CHANNELS 6 Xposition Yposition Zposition Zrotation Yrotation Xrotation 
	JOINT LHipJoint
	{
		OFFSET 0.000000 0.000000 0.000000
		CHANNELS 3 Zrotation Yrotation Xrotation
		JOINT LeftUpLeg
		{
			OFFSET 1.363060 -1.794630 0.839290
			CHANNELS 3 Zrotation Yrotation Xrotation
			JOINT LeftLeg
			{
				OFFSET 2.448110 -6.726130 0.000000
				CHANNELS 3 Zrotation Yrotation Xrotation
				JOINT LeftFoot
				{
					OFFSET 2.562200 -7.039590 0.000000
					CHANNELS 3 Zrotation Yrotation Xrotation
					JOINT LeftToeBase
					{
						OFFSET 0.157640 -0.433110 2.322550
						CHANNELS 3 Zrotation Yrotation Xrotation
						End Site
						{
							OFFSET 0.000000 0.000000 0.000000
						}
					}
				}
			}
		}
	}
	JOINT RHipJoint
	{
		OFFSET 0.000000 0.000000 0.000000
		CHANNELS 3 Zrotation Yrotation Xrotation
		JOINT RightUpLeg
		{
			OFFSET -1.305520 -1.794630 0.839290
			CHANNELS 3 Zrotation Yrotation Xrotation
			JOINT RightLeg
			{
				OFFSET -2.542530 -6.985550 0.000000
				CHANNELS 3 Zrotation Yrotation Xrotation
				JOINT RightFoot
				{
					OFFSET -2.568260 -7.056230 0.000000
					CHANNELS 3 Zrotation Yrotation Xrotation
					JOINT RightToeBase
					{
						OFFSET -0.164730 -0.452590 2.363150
						CHANNELS 3 Zrotation Yrotation Xrotation
						End Site
						{
							OFFSET 0.000000 0.000000 0.000000
						}
					}
				}
			}
		}
	}
	JOINT LowerBack
	{
		OFFSET 0.000000 0.000000 0.000000
		CHANNELS 3 Zrotation Yrotation Xrotation
		JOINT Spine
		{
			OFFSET 0.028270 2.035590 -0.193380
			CHANNELS 3 Zrotation Yrotation Xrotation
			JOINT Spine1
			{
				OFFSET 0.056720 2.048850 -0.042750
				CHANNELS 3 Zrotation Yrotation Xrotation
				JOINT Neck
				{
					OFFSET 0.000000 0.000000 0.000000
					CHANNELS 3 Zrotation Yrotation Xrotation
					JOINT Neck1
					{
						OFFSET -0.054170 1.746240 0.172020
						CHANNELS 3 Zrotation Yrotation Xrotation
						JOINT Head
						{
							OFFSET 0.104070 1.761360 -0.123970
							CHANNELS 3 Zrotation Yrotation Xrotation
							End Site
							{
								OFFSET 0.000000 0.000000 0.000000
							}
						}
					}
				}
				JOINT LeftShoulder
				{
					OFFSET 0.000000 0.000000 0.000000
					CHANNELS 3 Zrotation Yrotation Xrotation
					JOINT LeftArm
					{
						OFFSET 3.362410 1.200890 -0.311210
						CHANNELS 3 Zrotation Yrotation Xrotation
						JOINT LeftForeArm
						{
							OFFSET 4.983000 -0.000000 -0.000000
							CHANNELS 3 Zrotation Yrotation Xrotation
							JOINT LeftHand
							{
								OFFSET 3.483560 -0.000000 -0.000000
								CHANNELS 3 Zrotation Yrotation Xrotation
								JOINT LeftFingerBase
								{
									OFFSET 0.000000 0.000000 0.000000
									CHANNELS 3 Zrotation Yrotation Xrotation
									JOINT LeftHandIndex1
									{
										OFFSET 0.715260 -0.000000 -0.000000
										CHANNELS 3 Zrotation Yrotation Xrotation
										End Site
										{
											OFFSET 0.000000 0.000000 0.000000
										}
									}
								}
								JOINT LThumb
								{
									OFFSET 0.000000 0.000000 0.000000
									CHANNELS 3 Zrotation Yrotation Xrotation
									End Site
									{
										OFFSET 0.000000 0.000000 0.000000
									}
								}
							}
						}
					}
				}
				JOINT RightShoulder
				{
					OFFSET 0.000000 0.000000 0.000000
					CHANNELS 3 Zrotation Yrotation Xrotation
					JOINT RightArm
					{
						OFFSET -3.136600 1.374050 -0.404650
						CHANNELS 3 Zrotation Yrotation Xrotation
						JOINT RightForeArm
						{
							OFFSET -5.241900 -0.000000 -0.000000
							CHANNELS 3 Zrotation Yrotation Xrotation
							JOINT RightHand
							{
								OFFSET -3.444170 -0.000000 -0.000000
								CHANNELS 3 Zrotation Yrotation Xrotation
								JOINT RightFingerBase
								{
									OFFSET 0.000000 0.000000 0.000000
									CHANNELS 3 Zrotation Yrotation Xrotation
									JOINT RightHandIndex1
									{
										OFFSET -0.622530 -0.000000 -0.000000
										CHANNELS 3 Zrotation Yrotation Xrotation
										End Site
										{
											OFFSET 0.000000 0.000000 0.000000
										}
									}
								}
								JOINT RThumb
								{
									OFFSET 0.000000 0.000000 0.000000
									CHANNELS 3 Zrotation Yrotation Xrotation
									End Site
									{
										OFFSET 0.000000 0.000000 0.000000
									}
								}
							}
						}
					}
				}
			}
		}
	}
}
MOTION
Frames: 11
Frame Time: 0.008333
-29.884685 16.307808 18.207207 -173.879704 71.067188 -171.205897 1.901697 -10.438696 -13.710687 -11.182563 8.809066 14.817631 -8.489046 2.375805 32.775670 -20.690889 -6.835268 9.455647 3.350390 -43.657085 17.137170 0.953763 14.744408 -15.360978 7.933308 -2.718288 -6.407098 3.067756 -9.510318 4.789371 -1.715975 -18.229469 0.382996 -4.526321 25.863144 6.356508 -4.877130 -1.702106 31.550107 3.857060 -3.937083 -11.465088 1.212122 -4.880795 -5.297142 0.933324 2.398493 -9.831857 6.056740 1.649352 14.856471 -10.600597 13.736514 19.873478 17.650757 -2.423364 -0.728811 -83.873841 -23.359191 13.170523 160.627788 -87.279257 -162.620548 -2.180785 21.157707 -3.399684 0.000001 -0.000001 0.000002 0.000000 0.000000 0.000000 0.000000 -0.000000 -0.000000 -6.877681 5.478430 1.556717 80.108786 17.046062 9.751268 -8.531688 61.093624 2.844360 7.209475 8.543362 1.866407 -0.000000 0.000000 -0.000000 0.000000 0.000000 0.000000 -0.000000 0.000000 -0.000000 
-29.716216 16.294595 18.233333 -173.965391 70.750718 -171.599206 1.982505 -10.454770 -13.526494 -11.287272 8.332643 14.689095 -7.706899 3.418242 33.431296 -22.584292 -5.922597 10.954139 -4.781577 -43.815618 29.369238 0.625230 14.754205 -15.408449 8.493586 -3.274544 -6.151551 3.422469 -9.847629 5.322054 -1.597758 -16.782936 1.436567 -4.224625 19.928137 3.930055 -4.815348 -1.726901 31.464712 3.835921 -3.910965 -11.322225 1.374413 -4.872566 -4.924612 0.764454 2.420775 -10.018008 6.062196 1.711150 14.863713 -10.560936 13.840597 19.799291 17.534394 -2.156559 -0.643139 -84.082452 -22.783855 13.101072 158.626811 -88.218936 -161.070053 -1.324795 21.062762 -3.233667 0.000001 -0.000001 0.000002 -0.000000 0.000000 0.000000 0.000000 0.000000 0.000000 -7.126976 5.475693 1.538768 80.270526 17.390801 9.773877 -8.462495 60.840618 3.455933 6.536931 9.300827 1.955174 0.000000 0.000000 -0.000000 -0.000000 0.000000 0.000000 0.000000 0.000000 -0.000000 
-29.551802 16.293994 18.258408 -173.976489 70.253889 -171.535450 1.511529 -10.286099 -13.294186 -10.522366 7.852606 13.429880 -6.684453 4.716243 34.995789 -24.866601 -4.943234 12.585747 -15.134489 -36.400995 44.971286 0.827776 14.522609 -15.275904 8.514431 -4.038127 -6.590088 3.913937 -9.408933 6.592880 -2.627121 -15.286177 0.383278 -3.433838 13.754783 1.930791 -4.664097 -1.750106 31.304077 3.914549 -3.932977 -11.452687 1.139357 -4.922515 -4.733444 1.068299 2.470561 -10.186592 6.039275 1.716010 15.062200 -10.510375 13.972318 20.123646 17.506662 -1.814659 -0.274331 -84.348381 -22.182634 13.254579 144.863503 -89.305380 -147.764388 -0.856629 20.375549 -3.045871 0.000001 -0.000001 0.000002 -0.000000 -0.000000 0.000000 0.000000 -0.000000 0.000000 -6.567009 5.488619 1.580000 80.054332 17.470001 9.536549 -8.045286 60.805256 4.003048 6.544247 9.861888 2.068194 0.000000 0.000000 0.000000 -0.000000 0.000000 -0.000000 0.000000 0.000000 0.000000 
-29.404805 16.271922 18.285285 -173.679905 69.872844 -171.402569 1.590674 -10.472577 -13.114223 -10.616614 5.983676 12.934712 -7.043560 6.024305 36.324703 -22.061173 -4.212451 12.377387 -32.871433 -39.010292 73.594048 0.577145 14.661073 -15.401818 9.010669 -5.088123 -6.707116 4.289849 -9.918527 7.529813 -3.010947 -13.166023 -0.616199 -2.138552 9.282131 1.941532 -4.364228 -1.790741 31.324395 3.897980 -3.856005 -11.389505 1.173542 -4.900894 -4.456832 0.976903 2.498546 -10.478224 6.048091 1.774727 15.083277 -10.293290 14.010861 19.953133 17.309630 -1.935997 0.491126 -84.233076 -21.635769 16.493414 108.333505 -85.994974 -114.077698 -0.396304 20.383254 -2.969393 0.000001 -0.000001 0.000002 0.000000 0.000000 -0.000000 0.000000 -0.000000 0.000000 -6.768175 5.549164 1.320177 80.115474 17.528251 9.418352 -7.980194 60.778172 3.829338 6.570985 9.509198 2.000317 0.000000 0.000000 -0.000000 -0.000000 -0.000000 -0.000000 0.000000 0.000000 -0.000000 
-29.246847 16.277628 18.315916 -174.079729 69.344275 -171.523645 1.086730 -10.578239 -12.838552 -9.852838 5.585442 11.409646 -6.058007 7.168803 37.848903 -23.712049 -3.105758 13.986255 -30.617934 -11.916776 79.548103 0.831003 14.575443 -15.367503 8.717400 -5.893120 -7.183473 4.725467 -10.273201 8.496317 -5.458970 -10.917493 -0.887586 -0.269013 4.080641 2.898494 -4.325645 -1.673242 31.119953 3.934108 -3.817841 -11.583163 1.542597 -4.873039 -4.935124 0.792034 2.483308 -10.079118 6.036534 1.774719 15.275726 -10.270436 14.127270 20.054415 17.112121 -2.324931 -1.458351 -84.896701 -18.976793 13.417580 18.267294 -88.060557 -19.859040 -0.293734 20.239547 -2.930787 0.000001 -0.000001 0.000002 -0.000000 0.000000 0.000000 0.000000 0.000000 0.000000 -6.662476 5.517880 1.602905 79.842809 17.251240 9.070718 -7.583780 60.732183 3.087218 8.011411 8.039125 1.833797 -0.000000 0.000000 0.000000 0.000000 -0.000000 0.000000 -0.000000 0.000000 0.000000 
-29.082733 16.284384 18.348348 -174.286784 68.831718 -171.479942 0.626500 -10.531311 -12.512645 -9.136632 4.925335 9.921124 -5.264286 8.068945 39.416643 -25.131666 -1.661264 15.316677 -25.315890 3.636650 74.852696 1.163866 14.504419 -15.221319 8.576621 -7.345782 -8.018390 4.952887 -10.291808 9.690453 -4.865692 -8.903004 -1.916566 0.733979 -0.020782 2.271550 -4.394016 -1.763374 30.894757 4.108142 -3.977380 -11.781559 1.377113 -5.049085 -5.221505 1.171326 2.510624 -9.783398 5.991111 1.743800 15.510053 -10.630225 14.430845 19.983624 17.046748 -1.940284 -1.059795 -85.040721 -17.949440 12.990521 0.059571 -86.891591 -2.544665 -0.265233 20.344961 -2.941626 0.000001 -0.000001 0.000002 -0.000000 -0.000000 -0.000000 -0.000000 0.000000 0.000000 -6.006577 6.139256 1.642773 79.594886 16.876239 8.874077 -7.463882 60.671562 2.944692 7.337337 7.481490 1.658513 0.000000 0.000000 0.000000 0.000000 0.000000 -0.000000 0.000000 0.000000 0.000000 
-28.913964 16.306156 18.376877 -174.177096 68.301337 -171.128269 0.210530 -10.279771 -12.283397 -8.412988 4.147306 7.691847 -4.174619 8.998264 42.393629 -29.377634 0.083032 17.032321 -21.433347 12.986433 67.318146 1.199259 14.283169 -15.027257 9.081221 -8.254965 -8.967618 4.605988 -10.536817 11.098983 -4.130129 -7.601050 -3.422248 0.983643 -1.705321 1.413636 -4.310849 -1.763816 30.618831 4.155036 -3.761960 -11.900062 1.537227 -4.838243 -5.132098 1.066066 2.411879 -9.923175 6.107097 1.646659 15.578042 -10.487756 14.282632 20.411123 16.595058 -1.912626 -1.103375 -85.442506 -17.445720 13.003127 -4.514175 -85.497933 1.707231 -0.057740 20.119401 -2.873778 0.000001 -0.000001 0.000002 0.000000 -0.000000 -0.000000 0.000000 0.000000 0.000000 -5.944023 6.061853 1.598016 79.383625 16.671581 8.754317 -7.698260 60.795399 4.066780 5.822688 9.154588 1.855563 0.000000 0.000000 -0.000000 0.000000 0.000000 0.000000 0.000000 0.000000 -0.000000 
-28.778078 16.315015 18.392342 -172.729486 68.071594 -169.652719 0.236990 -10.234759 -12.268914 -7.694142 3.544809 5.835959 -3.486888 9.735434 45.363388 -30.325579 0.914575 18.380047 -19.526651 19.703075 62.933725 1.251385 14.425437 -15.098960 9.836181 -8.960790 -9.572226 4.444053 -10.706536 12.489749 -4.021868 -6.725140 -4.581297 1.335540 -2.871412 1.368348 -3.545517 -1.788096 30.590765 3.932221 -3.003148 -11.889902 1.412263 -4.040860 -5.407983 0.938522 2.204652 -9.839409 6.268533 1.452319 15.460268 -10.804727 13.961990 20.529180 16.441137 -2.768093 -1.063150 -85.925049 -17.198101 12.896258 -6.727037 -84.117190 3.475526 -0.789067 20.073354 -2.988255 0.000001 -0.000001 0.000002 -0.000000 -0.000000 0.000000 -0.000000 -0.000000 -0.000000 -6.147672 5.328975 1.628628 79.324551 16.358690 8.556080 -8.041588 60.947916 3.851800 6.139895 9.181397 1.892059 0.000000 0.000000 -0.000000 -0.000000 0.000000 0.000000 0.000000 0.000000 -0.000000 
-28.627778 16.317718 18.430180 -172.807095 67.535784 -169.676590 0.093760 -10.372976 -12.067546 -7.281411 2.734284 3.903530 -3.278940 10.066008 48.308438 -30.453794 1.876835 19.455018 -18.301346 21.433997 56.624516 0.887147 14.531403 -15.208674 10.504195 -9.809442 -9.985657 4.173986 -11.116960 13.750711 -4.167781 -5.717651 -5.865833 1.545270 -3.374757 1.544309 -3.500736 -1.815793 30.519192 3.880457 -2.773851 -11.817951 1.403023 -3.788117 -5.380045 0.985016 2.241443 -9.917953 6.449072 1.473247 15.328006 -9.624391 14.008755 20.901575 16.542662 -2.844469 -1.071251 -86.369222 -16.887853 12.825417 -7.369828 -82.746147 4.012781 -0.417784 19.651316 -2.863614 0.000001 -0.000001 0.000002 0.000000 -0.000000 0.000000 -0.000000 -0.000000 0.000000 -6.241438 5.225146 1.640945 79.343173 16.329013 8.157408 -7.896697 61.139091 4.248972 7.180537 9.918971 2.146865 0.000000 0.000000 0.000000 0.000000 -0.000000 0.000000 0.000000 0.000000 0.000000 
-28.475976 16.339189 18.473123 -174.041767 67.260555 -170.518378 -0.397434 -10.709388 -11.544724 -6.839599 1.842174 1.508866 -2.944452 10.939815 50.786499 -30.448919 2.849968 20.951836 -18.275347 21.424165 56.453091 0.722089 14.683421 -15.375484 10.411994 -10.212779 -10.307028 3.965716 -11.629525 14.912199 -4.484423 -4.820307 -6.896025 1.614209 -3.360179 1.797852 -4.166452 -1.896718 30.395478 3.974383 -2.625492 -11.918510 1.448558 -3.688599 -5.104644 1.117789 2.165747 -10.294216 6.539512 1.389039 15.299347 -9.472395 13.810021 20.893646 16.413093 -2.210879 -0.976378 -86.677008 -16.793120 12.867954 -7.729671 -81.308869 4.066787 0.525543 19.548973 -2.696715 0.000001 -0.000001 0.000002 -0.000000 -0.000000 0.000000 0.000000 -0.000000 -0.000000 -6.062017 5.528675 1.529455 79.181403 16.489732 7.868799 -7.824116 61.306873 4.062487 7.206365 9.563463 2.076309 0.000000 -0.000000 0.000000 0.000000 -0.000000 0.000000 0.000000 -0.000000 0.000000 
-28.318919 16.356306 18.512012 -174.465068 66.557913 -170.836224 -0.654759 -10.592295 -11.617008 -6.496017 1.053270 -0.149820 -2.099996 11.750732 53.017934 -30.173637 3.376691 21.271920 -16.983686 23.390883 48.170677 0.734597 14.565040 -15.275099 10.644397 -10.683821 -10.374094 3.544529 -12.456495 15.202493 -4.712864 -4.150573 -7.597910 1.842985 -3.564792 2.371461 -3.925887 -1.876873 30.384729 3.885247 -2.478226 -11.954854 1.505022 -3.537551 -5.432765 0.852328 2.103929 -10.059214 6.613647 1.358515 15.209098 -8.430832 13.390933 20.584317 16.012630 -2.457655 -1.077306 -86.869384 -16.369333 13.179762 -7.213856 -79.907527 3.279251 0.974154 19.711971 -2.646973 0.000001 -0.000001 0.000002 -0.000000 0.000000 -0.000000 -0.000000 0.000000 -0.000000 -6.396748 5.669007 1.480059 79.041600 16.061344 7.859855 -8.400065 61.499204 3.564701 7.585272 9.247256 2.048939 0.000000 -0.000000 0.000000 -0.000000 -0.000000 0.000000 0.000000 -0.000000 0.000000 
